HIERARCHY
ROOT pelvis
{
  OFFSET 0 100 0
  CHANNELS 6 Xposition Yposition Zposition Zrotation Xrotation Yrotation
  JOINT pelvis_right_femur
  {
    OFFSET -10.78128 -3.44521 -0.5502486
    CHANNELS 3 Zrotation Xrotation Yrotation
    JOINT right_femur_tibia
    {
      OFFSET -0.8047443 -44.0398 -0.1307829
      CHANNELS 3 Zrotation Xrotation Yrotation
      JOINT right_tibia_foot
      {
        OFFSET 3.006224 -47.83518 -5
        CHANNELS 3 Zrotation Xrotation Yrotation
        End Site
        {
          OFFSET 0 -5 15
        }
      }
    }
  }
  JOINT pelvis_left_femur
  {
    OFFSET 10.78128 -3.44521 -0.5502486
    CHANNELS 3 Zrotation Xrotation Yrotation
    JOINT left_femur_tibia
    {
      OFFSET 0.8047443 -44.0398 -0.1307829
      CHANNELS 3 Zrotation Xrotation Yrotation
      JOINT left_tibia_foot
      {
        OFFSET -4.370144 -48.10324 -4.275266
        CHANNELS 3 Zrotation Xrotation Yrotation
        End Site
        {
          OFFSET 0 -5 15
        }
      }
    }
  }
  JOINT pelvis_spine1
  {
    OFFSET 0 6.468898 -3.129235
    CHANNELS 3 Zrotation Xrotation Yrotation
    JOINT spine1
    {
      OFFSET 0 23.15396 4.99043
      CHANNELS 3 Zrotation Xrotation Yrotation
      JOINT spine2
      {
        OFFSET 0 20.79997 -5.064912
        CHANNELS 3 Zrotation Xrotation Yrotation
        JOINT neck
        {
          OFFSET 0 14.38658 9.616178
          CHANNELS 3 Zrotation Xrotation Yrotation
          End Site
          {
            OFFSET 0 20 0
          }
        }
      }
      JOINT right_manubrium
      {
        OFFSET -5.722621 16.35077 3.967754
        CHANNELS 3 Zrotation Xrotation Yrotation
        JOINT right_clavicle
        {
          OFFSET -13.16364 1.694482 -4.693211
          CHANNELS 3 Zrotation Xrotation Yrotation
          JOINT right_humerus
          {
            OFFSET -28.5034 -0.3100689 -2.792744
            CHANNELS 3 Zrotation Xrotation Yrotation
            JOINT right_radius
            {
              OFFSET -25.15693 0.02248979 -1.271978
              CHANNELS 3 Zrotation Xrotation Yrotation
              End Site
              {
                OFFSET -15 0 0
              }
            }
          }
        }
      }
      JOINT left_manubrium
      {
        OFFSET 5.722621 16.35077 3.967754
        CHANNELS 3 Zrotation Xrotation Yrotation
        JOINT left_clavicle
        {
          OFFSET 13.16364 1.694482 -4.693211
          CHANNELS 3 Zrotation Xrotation Yrotation
          JOINT left_humerus
          {
            OFFSET 29.39168 -1.063119 -2.237045
            CHANNELS 3 Zrotation Xrotation Yrotation
            JOINT left_radius
            {
              OFFSET 24.59957 -0.9528479 0.9047498
              CHANNELS 3 Zrotation Xrotation Yrotation
              End Site
              {
                OFFSET 15 -0 -0
              }
            }
          }
        }
      }
    }
  }
}
MOTION
Frames: 8
Frame Time: 0.0416666666667
0 103.5113 0 1.978514 -1.128453 -0.1425351 2.072046 -10.65823 9.312122 7.314492e-06 34.82221 -2.580232e-06 -5.073242 -18.67538 -3.246099 -7.963266 8.985421 -23.76791 3.620553e-06 5.820363 1.058987e-06 9.093716 -16.51064 28.45443 -4.927453 -4.882145 5.409905 2.395542 9.165177 -7.701361 1.334643 22.49146 6.566785 3.21942 -23.55457 8.777804 6.592552 -20.16823 11.51303 85.42238 36.25224 -19.01467 9.674627e-07 6.237363e-07 16.45126 -6.890353 8.08761 4.094751 5.339261 -19.52263 -1.223354 -95.01489 29.77106 23.54387 3.234511e-06 -2.962262e-06 -16.32801 3.972232 18.2268 9.125398
0.3405359 103.6372 1.451126 1.628235 -1.01016 -0.1667062 2.612594 -13.1036 9.173831 5.227596e-06 36.57653 -1.619619e-06 -5.165492 -17.76504 -3.437699 -7.724767 9.879938 -23.50007 1.510008e-06 5.645469 1.414107e-06 8.504214 -17.18825 27.46304 -4.606862 -4.444026 5.092403 2.420855 9.192397 -7.839284 1.249706 22.3422 6.770159 3.191216 -23.6734 8.95741 6.545716 -20.00327 11.53499 85.79374 36.03838 -19.34997 5.869338e-07 6.612774e-07 16.46578 -6.911757 8.256868 4.149739 5.274558 -19.57623 -1.408569 -94.84293 29.83549 23.35842 3.108317e-06 -1.930199e-06 -16.766 3.840007 17.82016 9.392869
0.6892646 103.7293 3.003162 1.252552 -0.6929882 -0.04980679 3.225158 -15.91091 8.843717 2.87414e-06 36.75608 -3.325318e-07 -5.251133 -16.51355 -3.42847 -7.461752 10.70221 -23.10209 -3.148462e-07 5.499644 1.164892e-06 7.711363 -18.0428 26.28447 -4.242599 -3.921933 4.769075 2.481182 9.201252 -7.952095 1.156109 22.1342 7.045048 3.24908 -23.90844 9.144449 6.457423 -19.77083 11.58027 86.1289 35.83647 -19.76037 3.293059e-07 5.578972e-07 16.31421 -7.090369 8.415772 4.301885 5.359707 -19.73531 -1.592429 -94.5832 29.80201 22.9795 2.720619e-06 -9.973872e-07 -17.51532 3.78707 17.31941 9.559597
1.044734 103.7282 4.735412 0.9346363 -0.1411132 0.1711133 3.778146 -18.67887 8.345054 6.555194e-07 35.18578 8.281762e-07 -5.263775 -14.9903 -3.1749 -7.271485 11.39009 -22.64471 -1.853487e-06 5.419828 3.653377e-07 6.853318 -19.01209 25.09141 -3.92345 -3.445244 4.517287 2.566506 9.160825 -8.016373 1.083165 21.87432 7.352921 3.405175 -24.25679 9.320065 6.32951 -19.4745 11.61769 86.36804 35.68598 -20.22724 1.963319e-07 2.312331e-07 15.98501 -7.406912 8.517032 4.504529 5.613406 -19.97484 -1.71697 -94.25508 29.67831 22.43477 1.916527e-06 -3.171179e-07 -18.5433 3.825013 16.80075 9.58892
1.402472 103.5712 6.710049 0.6919299 0.5410935 0.473539 4.239206 -21.50257 7.710015 -1.244041e-06 32.21564 1.373916e-06 -5.190894 -13.26144 -2.809135 -7.165128 12.05511 -22.12729 -3.051214e-06 5.518972 -9.654741e-07 5.934442 -20.14189 23.87923 -3.669799 -2.986741 4.323546 2.665511 9.069241 -8.044716 1.04568 21.59606 7.668925 3.623926 -24.65263 9.496052 6.141654 -19.09122 11.63159 86.61145 35.51889 -20.79545 7.262785e-08 -3.027908e-07 15.48854 -7.842853 8.589183 4.72667 6.007422 -20.28105 -1.804652 -93.83699 29.50711 21.65112 6.342048e-07 1.926549e-07 -19.84133 3.899129 16.25551 9.535468
1.756828 103.2138 8.940593 0.5172168 1.283036 0.8162843 4.575007 -23.99747 7.006278 -2.592997e-06 28.0754 1.305379e-06 -5.116659 -11.52362 -2.358302 -7.112416 12.51864 -21.59016 -3.585297e-06 5.829645 -2.777669e-06 5.01649 -21.21459 22.74361 -3.486636 -2.567425 4.192559 2.780053 8.947056 -8.032236 1.035562 21.30763 7.956947 3.880734 -25.05313 9.63674 5.939436 -18.66876 11.63024 86.71601 35.41848 -21.31979 -3.58598e-09 -9.521621e-07 14.86805 -8.309848 8.629495 4.966667 6.479689 -20.60113 -1.836869 -93.34653 29.29379 20.76761 -9.252741e-07 4.928784e-07 -21.15491 4.006178 15.73046 9.406305
2.108291 102.6838 11.52066 0.3153408 2.085367 1.194798 4.84815 -26.19553 6.278757 -3.617664e-06 23.76372 9.686976e-07 -5.088452 -9.814105 -1.920476 -7.028221 13.06023 -20.98998 -3.896139e-06 6.446596 -4.20066e-06 3.913872 -22.05417 21.41852 -3.301312 -2.232708 4.045026 2.916458 8.773419 -8.040273 1.034645 21.01051 8.201089 4.111472 -25.43918 9.75352 5.739535 -18.19417 11.57274 86.86 35.39462 -21.86165 -8.148206e-08 -1.580927e-06 14.14351 -8.746179 8.71632 5.222148 6.915699 -20.88315 -1.800496 -92.83972 29.09031 19.88494 -2.539925e-06 7.31706e-07 -22.37912 4.089001 15.19026 9.314132
2.447906 102.0136 14.46267 0.077323 2.722292 1.594966 5.078067 -27.84521 5.620265 -4.245686e-06 19.91488 6.024712e-07 -5.188282 -8.481115 -1.616521 -6.850928 13.56682 -20.34648 -3.899715e-06 7.453837 -4.98497e-06 2.723932 -22.48271 20.06894 -3.093791 -1.946379 3.851547 3.056562 8.596234 -8.075047 1.028623 20.79569 8.364643 4.261491 -25.7133 9.818526 5.558984 -17.72601 11.48502 87.08533 35.42321 -22.33628 -1.598082e-07 -1.997817e-06 13.36672 -9.112268 8.8526 5.480308 7.231538 -21.11188 -1.741083 -92.35943 28.93039 19.03427 -3.745235e-06 9.51835e-07 -23.3325 4.147367 14.70151 9.256359
